<?xml version="1.0" encoding="UTF-8" standalone="no"?>
<!DOCTYPE svg PUBLIC "-//W3C//DTD SVG 1.0//EN" "http://www.w3.org/TR/2001/PR-SVG-20010719/DTD/svg10.dtd">
<svg width="51cm" height="19cm" viewBox="38 138 1010 363" xmlns="http://www.w3.org/2000/svg" xmlns:xlink="http://www.w3.org/1999/xlink">
  <g>
    <polygon style="fill: none; fill-opacity:0; stroke-width: 0.2; stroke: #000000" points="580,270 641.75,297 641.75,351 580,378 "/>
    <text font-size="12.8" style="fill: #000000;text-anchor:middle;font-family:sans-serif;font-style:normal;font-weight:normal" x="610.875" y="320">
      <tspan x="610.875" y="320">real</tspan>
      <tspan x="610.875" y="336">fake</tspan>
    </text>
  </g>
  <g>
    <rect style="fill: #ffa500" x="680" y="300" width="112.825" height="123.122"/>
    <rect style="fill: none; fill-opacity:0; stroke-width: 2; stroke: #000000" x="680" y="300" width="112.825" height="123.122"/>
    <text font-size="12.8" style="fill: #000000;text-anchor:middle;font-family:sans-serif;font-style:normal;font-weight:normal" x="736.413" y="365.461">
      <tspan x="736.413" y="365.461">Discriminator</tspan>
    </text>
  </g>
  <g>
    <polygon style="fill: #ffffff" points="919.79,300 999.581,362.723 919.79,425.445 840,362.723 "/>
    <polygon style="fill: none; fill-opacity:0; stroke-width: 2; stroke: #000000" points="919.79,300 999.581,362.723 919.79,425.445 840,362.723 "/>
    <text font-size="12.8" style="fill: #ffa500;text-anchor:middle;font-family:sans-serif;font-style:normal;font-weight:normal" x="919.79" y="366.623">
      <tspan x="919.79" y="366.623">MSE(prediction)</tspan>
    </text>
  </g>
  <g>
    <path style="fill: #00b300" d="M 380 163.333 C 407.59,145.833 421.385,140 448.975,140 C 476.565,140 490.36,145.833 517.95,163.333 L 517.95,256.667 C 490.36,274.167 476.565,280 448.975,280 C 421.385,280 407.59,274.167 380,256.667 L 380,163.333z"/>
    <path style="fill: none; fill-opacity:0; stroke-width: 2; stroke: #000000" d="M 380 163.333 C 407.59,145.833 421.385,140 448.975,140 C 476.565,140 490.36,145.833 517.95,163.333 L 517.95,256.667 C 490.36,274.167 476.565,280 448.975,280 C 421.385,280 407.59,274.167 380,256.667 L 380,163.333"/>
    <path style="fill: none; fill-opacity:0; stroke-width: 2; stroke: #000000" d="M 380 163.333 C 407.59,180.833 421.385,186.667 448.975,186.667 C 476.565,186.667 490.36,180.833 517.95,163.333"/>
    <text font-size="12.8" style="fill: #000000;text-anchor:middle;font-family:sans-serif;font-style:normal;font-weight:normal" x="448.975" y="225.667">
      <tspan x="448.975" y="225.667">ground-truth images</tspan>
    </text>
  </g>
  <g>
    <path style="fill: #90ee90" d="M 380 363.333 C 407.59,345.833 421.385,340 448.975,340 C 476.565,340 490.36,345.833 517.95,363.333 L 517.95,456.667 C 490.36,474.167 476.565,480 448.975,480 C 421.385,480 407.59,474.167 380,456.667 L 380,363.333z"/>
    <path style="fill: none; fill-opacity:0; stroke-width: 2; stroke: #000000" d="M 380 363.333 C 407.59,345.833 421.385,340 448.975,340 C 476.565,340 490.36,345.833 517.95,363.333 L 517.95,456.667 C 490.36,474.167 476.565,480 448.975,480 C 421.385,480 407.59,474.167 380,456.667 L 380,363.333"/>
    <path style="fill: none; fill-opacity:0; stroke-width: 2; stroke: #000000" d="M 380 363.333 C 407.59,380.833 421.385,386.667 448.975,386.667 C 476.565,386.667 490.36,380.833 517.95,363.333"/>
    <text font-size="12.8" style="fill: #000000;text-anchor:middle;font-family:sans-serif;font-style:normal;font-weight:normal" x="448.975" y="425.667">
      <tspan x="448.975" y="425.667">generated images</tspan>
    </text>
  </g>
  <g>
    <path style="fill: #8fdcc6" d="M 40 363.333 C 67.59,345.833 81.385,340 108.975,340 C 136.565,340 150.36,345.833 177.95,363.333 L 177.95,456.667 C 150.36,474.167 136.565,480 108.975,480 C 81.385,480 67.59,474.167 40,456.667 L 40,363.333z"/>
    <path style="fill: none; fill-opacity:0; stroke-width: 2; stroke: #000000" d="M 40 363.333 C 67.59,345.833 81.385,340 108.975,340 C 136.565,340 150.36,345.833 177.95,363.333 L 177.95,456.667 C 150.36,474.167 136.565,480 108.975,480 C 81.385,480 67.59,474.167 40,456.667 L 40,363.333"/>
    <path style="fill: none; fill-opacity:0; stroke-width: 2; stroke: #000000" d="M 40 363.333 C 67.59,380.833 81.385,386.667 108.975,386.667 C 136.565,386.667 150.36,380.833 177.95,363.333"/>
    <text font-size="12.8" style="fill: #000000;text-anchor:middle;font-family:sans-serif;font-style:normal;font-weight:normal" x="108.975" y="425.667">
      <tspan x="108.975" y="425.667">noisy images</tspan>
    </text>
  </g>
  <g>
    <rect style="fill: #ffff00" x="220" y="340" width="112.825" height="123.122"/>
    <rect style="fill: none; fill-opacity:0; stroke-width: 2; stroke: #000000" x="220" y="340" width="112.825" height="123.122"/>
    <text font-size="12.8" style="fill: #000000;text-anchor:middle;font-family:sans-serif;font-style:normal;font-weight:normal" x="276.413" y="405.461">
      <tspan x="276.413" y="405.461">Generator</tspan>
    </text>
  </g>
  <g>
    <polyline style="fill: none; fill-opacity:0; stroke-width: 2; stroke: #000000" points="177.95,398.333 180,398.333 180,401.561 210.264,401.561 "/>
    <polygon style="fill: #000000" points="217.764,401.561 207.764,406.561 210.264,401.561 207.764,396.561 "/>
    <polygon style="fill: none; fill-opacity:0; stroke-width: 2; stroke: #000000" points="217.764,401.561 207.764,406.561 210.264,401.561 207.764,396.561 "/>
  </g>
  <g>
    <path style="fill: none; fill-opacity:0; stroke-width: 2; stroke: #000000" d="M 641.75 324 C 661.088,324 660.66,330.78 670.264,330.78"/>
    <polygon style="fill: #000000" points="677.764,330.78 667.764,335.78 670.264,330.78 667.764,325.78 "/>
    <polygon style="fill: none; fill-opacity:0; stroke-width: 2; stroke: #000000" points="677.764,330.78 667.764,335.78 670.264,330.78 667.764,325.78 "/>
  </g>
  <g>
    <polygon style="fill: #ffffff" points="740.569,140 821.138,203.335 740.569,266.67 660,203.335 "/>
    <polygon style="fill: none; fill-opacity:0; stroke-width: 2; stroke: #000000" points="740.569,140 821.138,203.335 740.569,266.67 660,203.335 "/>
    <text font-size="12.8" style="fill: #ffa500;text-anchor:middle;font-family:sans-serif;font-style:normal;font-weight:normal" x="740.569" y="199.235">
      <tspan x="740.569" y="199.235">Structural</tspan>
      <tspan x="740.569" y="215.235">SIMilarity</tspan>
    </text>
  </g>
  <g>
    <path style="fill: none; fill-opacity:0; stroke-width: 2; stroke-dasharray: 4; stroke: #000000" d="M 821.138 203.335 C 882.156,156.987 875.156,261.987 827.734,210.496"/>
    <polygon style="fill: #000000" points="822.653,204.98 833.105,208.948 827.734,210.496 825.75,215.723 "/>
    <polygon style="fill: none; fill-opacity:0; stroke-width: 2; stroke: #000000" points="822.653,204.98 833.105,208.948 827.734,210.496 825.75,215.723 "/>
  </g>
  <g>
    <path style="fill: none; fill-opacity:0; stroke-width: 2; stroke-dasharray: 4; stroke: #000000" d="M 999.581 362.723 C 1066,319.001 1059,420.001 1006.59,369.48"/>
    <polygon style="fill: #000000" points="1001.19,364.274 1011.86,367.615 1006.59,369.48 1004.92,374.814 "/>
    <polygon style="fill: none; fill-opacity:0; stroke-width: 2; stroke: #000000" points="1001.19,364.274 1011.86,367.615 1006.59,369.48 1004.92,374.814 "/>
  </g>
  <g>
    <polyline style="fill: none; fill-opacity:0; stroke-width: 2; stroke: #000000" points="332.825,401.561 340,401.561 340,398.333 370.264,398.333 "/>
    <polygon style="fill: #000000" points="377.764,398.333 367.764,403.333 370.264,398.333 367.764,393.333 "/>
    <polygon style="fill: none; fill-opacity:0; stroke-width: 2; stroke: #000000" points="377.764,398.333 367.764,403.333 370.264,398.333 367.764,393.333 "/>
  </g>
  <g>
    <polyline style="fill: none; fill-opacity:0; stroke-width: 2; stroke: #000000" points="177.95,427.5 200,427.5 200,500 590,500 590,392.341 670.264,392.341 "/>
    <polygon style="fill: #000000" points="677.764,392.341 667.764,397.341 670.264,392.341 667.764,387.341 "/>
    <polygon style="fill: none; fill-opacity:0; stroke-width: 2; stroke: #000000" points="677.764,392.341 667.764,397.341 670.264,392.341 667.764,387.341 "/>
  </g>
  <g>
    <path style="fill: none; fill-opacity:0; stroke-width: 2; stroke: #000000" d="M 792.825 361.561 C 827.216,361.561 805.609,362.723 830.264,362.723"/>
    <polygon style="fill: #000000" points="837.764,362.723 827.764,367.723 830.264,362.723 827.764,357.723 "/>
    <polygon style="fill: none; fill-opacity:0; stroke-width: 2; stroke: #000000" points="837.764,362.723 827.764,367.723 830.264,362.723 827.764,357.723 "/>
  </g>
  <g>
    <polyline style="fill: none; fill-opacity:0; stroke-width: 2; stroke: #000000" points="517.95,427.5 548.975,427.5 548.975,351 570.264,351 "/>
    <polygon style="fill: #000000" points="577.764,351 567.764,356 570.264,351 567.764,346 "/>
    <polygon style="fill: none; fill-opacity:0; stroke-width: 2; stroke: #000000" points="577.764,351 567.764,356 570.264,351 567.764,346 "/>
  </g>
  <g>
    <polyline style="fill: none; fill-opacity:0; stroke-width: 2; stroke: #000000" points="517.95,227.5 548.975,227.5 548.975,297 570.264,297 "/>
    <polygon style="fill: #000000" points="577.764,297 567.764,302 570.264,297 567.764,292 "/>
    <polygon style="fill: none; fill-opacity:0; stroke-width: 2; stroke: #000000" points="577.764,297 567.764,302 570.264,297 567.764,292 "/>
  </g>
  <g>
    <path style="fill: none; fill-opacity:0; stroke-width: 2; stroke: #000000" d="M 517.95 398.333 C 528,404 552.686,324.787 532,296 C 511.314,267.213 620,240 690.567,235.607"/>
    <polygon style="fill: #000000" points="698.053,235.141 688.383,240.753 690.567,235.607 687.761,230.772 "/>
    <polygon style="fill: none; fill-opacity:0; stroke-width: 2; stroke: #000000" points="698.053,235.141 688.383,240.753 690.567,235.607 687.761,230.772 "/>
  </g>
  <g>
    <path style="fill: none; fill-opacity:0; stroke-width: 2; stroke: #000000" d="M 517.95 198.333 C 578.485,198.333 639.749,171.667 690.549,171.667"/>
    <polygon style="fill: #000000" points="698.049,171.667 688.049,176.667 690.549,171.667 688.049,166.667 "/>
    <polygon style="fill: none; fill-opacity:0; stroke-width: 2; stroke: #000000" points="698.049,171.667 688.049,176.667 690.549,171.667 688.049,166.667 "/>
  </g>
</svg>
