<?xml version="1.0" encoding="UTF-8" standalone="no"?>
<!DOCTYPE svg PUBLIC "-//W3C//DTD SVG 1.0//EN" "http://www.w3.org/TR/2001/PR-SVG-20010719/DTD/svg10.dtd">
<svg width="48cm" height="14cm" viewBox="-2 278 956 276" xmlns="http://www.w3.org/2000/svg" xmlns:xlink="http://www.w3.org/1999/xlink">
  <g>
    <polygon style="fill: #ffffff" points="800.873,300 901.746,379.296 800.873,458.591 700,379.296 "/>
    <polygon style="fill: none; fill-opacity:0; stroke-width: 2; stroke: #000000" points="800.873,300 901.746,379.296 800.873,458.591 700,379.296 "/>
    <text font-size="12.8" style="fill: #ffa500;text-anchor:middle;font-family:sans-serif;font-style:normal;font-weight:normal" x="800.873" y="351.196">
      <tspan x="800.873" y="351.196">Loss (eg: </tspan>
      <tspan x="800.873" y="367.196">Structural</tspan>
      <tspan x="800.873" y="383.196">SIMilarity</tspan>
      <tspan x="800.873" y="399.196">or</tspan>
      <tspan x="800.873" y="415.196">L1)</tspan>
    </text>
  </g>
  <g>
    <path style="fill: #00b300" d="M 0 303.333 C 27.59,285.833 41.385,280 68.975,280 C 96.565,280 110.36,285.833 137.95,303.333 L 137.95,396.667 C 110.36,414.167 96.565,420 68.975,420 C 41.385,420 27.59,414.167 0,396.667 L 0,303.333z"/>
    <path style="fill: none; fill-opacity:0; stroke-width: 2; stroke: #000000" d="M 0 303.333 C 27.59,285.833 41.385,280 68.975,280 C 96.565,280 110.36,285.833 137.95,303.333 L 137.95,396.667 C 110.36,414.167 96.565,420 68.975,420 C 41.385,420 27.59,414.167 0,396.667 L 0,303.333"/>
    <path style="fill: none; fill-opacity:0; stroke-width: 2; stroke: #000000" d="M 0 303.333 C 27.59,320.833 41.385,326.667 68.975,326.667 C 96.565,326.667 110.36,320.833 137.95,303.333"/>
    <text font-size="12.8" style="fill: #000000;text-anchor:middle;font-family:sans-serif;font-style:normal;font-weight:normal" x="68.975" y="365.667">
      <tspan x="68.975" y="365.667">ground-truth images</tspan>
    </text>
  </g>
  <g>
    <path style="fill: #90ee90" d="M 520 343.333 C 547.59,325.833 561.385,320 588.975,320 C 616.565,320 630.36,325.833 657.95,343.333 L 657.95,436.667 C 630.36,454.167 616.565,460 588.975,460 C 561.385,460 547.59,454.167 520,436.667 L 520,343.333z"/>
    <path style="fill: none; fill-opacity:0; stroke-width: 2; stroke: #000000" d="M 520 343.333 C 547.59,325.833 561.385,320 588.975,320 C 616.565,320 630.36,325.833 657.95,343.333 L 657.95,436.667 C 630.36,454.167 616.565,460 588.975,460 C 561.385,460 547.59,454.167 520,436.667 L 520,343.333"/>
    <path style="fill: none; fill-opacity:0; stroke-width: 2; stroke: #000000" d="M 520 343.333 C 547.59,360.833 561.385,366.667 588.975,366.667 C 616.565,366.667 630.36,360.833 657.95,343.333"/>
    <text font-size="12.8" style="fill: #000000;text-anchor:middle;font-family:sans-serif;font-style:normal;font-weight:normal" x="588.975" y="405.667">
      <tspan x="588.975" y="405.667">generated images</tspan>
    </text>
  </g>
  <g>
    <rect style="fill: #ffff00" x="340" y="340" width="112.825" height="123.122"/>
    <rect style="fill: none; fill-opacity:0; stroke-width: 2; stroke: #000000" x="340" y="340" width="112.825" height="123.122"/>
    <text font-size="12.8" style="fill: #000000;text-anchor:middle;font-family:sans-serif;font-style:normal;font-weight:normal" x="396.413" y="405.461">
      <tspan x="396.413" y="405.461">Generator</tspan>
    </text>
  </g>
  <g>
    <polyline style="fill: none; fill-opacity:0; stroke-width: 2; stroke: #000000" points="452.826,401.56 460,401.56 460,407.5 510.264,407.5 "/>
    <polygon style="fill: #000000" points="517.764,407.5 507.764,412.5 510.264,407.5 507.764,402.5 "/>
    <polygon style="fill: none; fill-opacity:0; stroke-width: 2; stroke: #000000" points="517.764,407.5 507.764,412.5 510.264,407.5 507.764,402.5 "/>
  </g>
  <g>
    <polyline style="fill: none; fill-opacity:0; stroke-width: 2; stroke: #000000" points="657.95,407.5 660,407.5 660,418.944 740.7,418.944 "/>
    <polygon style="fill: #000000" points="748.2,418.944 738.2,423.944 740.7,418.944 738.2,413.944 "/>
    <polygon style="fill: none; fill-opacity:0; stroke-width: 2; stroke: #000000" points="748.2,418.944 738.2,423.944 740.7,418.944 738.2,413.944 "/>
  </g>
  <g>
    <path style="fill: #bfbfbf" d="M 71.54 460 L 129.24,460 C 137.895,478.6 140.78,487.9 140.78,506.5 C 140.78,525.1 137.895,534.4 129.24,553 L 71.54,553 L 60,506.5 L 71.54,460z"/>
    <path style="fill: none; fill-opacity:0; stroke-width: 2; stroke: #000000" d="M 71.54 460 L 129.24,460 C 137.895,478.6 140.78,487.9 140.78,506.5 C 140.78,525.1 137.895,534.4 129.24,553 L 71.54,553 L 60,506.5 L 71.54,460"/>
    <text font-size="12.8" style="fill: #000000;text-anchor:middle;font-family:sans-serif;font-style:normal;font-weight:normal" x="100.39" y="502.5">
      <tspan x="100.39" y="502.5">random</tspan>
      <tspan x="100.39" y="518.5">noise</tspan>
    </text>
  </g>
  <g>
    <ellipse style="fill: #ffffff" cx="216.5" cy="416.5" rx="36.5" ry="36.5"/>
    <ellipse style="fill: none; fill-opacity:0; stroke-width: 2; stroke: #000000" cx="216.5" cy="416.5" rx="36.5" ry="36.5"/>
    <line style="fill: none; fill-opacity:0; stroke-width: 2; stroke: #000000" x1="216.5" y1="380" x2="216.5" y2="453"/>
    <line style="fill: none; fill-opacity:0; stroke-width: 2; stroke: #000000" x1="180" y1="416.5" x2="253" y2="416.5"/>
  </g>
  <g>
    <polyline style="fill: none; fill-opacity:0; stroke-width: 2; stroke: #000000" points="137.95,367.5 140,367.5 140,390.69 180.955,390.69 "/>
    <polygon style="fill: #000000" points="188.455,390.69 178.455,395.69 180.955,390.69 178.455,385.69 "/>
    <polygon style="fill: none; fill-opacity:0; stroke-width: 2; stroke: #000000" points="188.455,390.69 178.455,395.69 180.955,390.69 178.455,385.69 "/>
  </g>
  <g>
    <polyline style="fill: none; fill-opacity:0; stroke-width: 2; stroke: #000000" points="140.78,506.5 140,506.5 140,442.31 180.955,442.31 "/>
    <polygon style="fill: #000000" points="188.455,442.31 178.455,447.31 180.955,442.31 178.455,437.31 "/>
    <polygon style="fill: none; fill-opacity:0; stroke-width: 2; stroke: #000000" points="188.455,442.31 178.455,447.31 180.955,442.31 178.455,437.31 "/>
  </g>
  <g>
    <polyline style="fill: none; fill-opacity:0; stroke-width: 2; stroke: #000000" points="253,416.5 260,416.5 260,401.56 330.264,401.56 "/>
    <polygon style="fill: #000000" points="337.764,401.56 327.764,406.56 330.264,401.56 327.764,396.56 "/>
    <polygon style="fill: none; fill-opacity:0; stroke-width: 2; stroke: #000000" points="337.764,401.56 327.764,406.56 330.264,401.56 327.764,396.56 "/>
  </g>
  <g>
    <path style="fill: none; fill-opacity:0; stroke-width: 2; stroke: #000000" d="M 137.95 338.334 C 340,280 560,280 741.145,336.738"/>
    <polygon style="fill: #000000" points="748.302,338.98 737.265,340.762 741.145,336.738 740.254,331.219 "/>
    <polygon style="fill: none; fill-opacity:0; stroke-width: 2; stroke: #000000" points="748.302,338.98 737.265,340.762 741.145,336.738 740.254,331.219 "/>
  </g>
  <g>
    <path style="fill: none; fill-opacity:0; stroke-width: 2; stroke-dasharray: 4; stroke: #000000" d="M 901.746 379.296 C 963.056,306.916 976.687,466.674 908.084,386.686"/>
    <polygon style="fill: #000000" points="903.202,380.993 913.507,385.328 908.084,386.686 905.917,391.839 "/>
    <polygon style="fill: none; fill-opacity:0; stroke-width: 2; stroke: #000000" points="903.202,380.993 913.507,385.328 908.084,386.686 905.917,391.839 "/>
  </g>
</svg>
