<svg width="134" height="47" viewBox="0 0 134 47" fill="none" xmlns="http://www.w3.org/2000/svg">
<g opacity="0.203181">
<mask id="mask0" mask-type="alpha" maskUnits="userSpaceOnUse" x="0" y="0" width="18" height="48">
<path fill-rule="evenodd" clip-rule="evenodd" d="M0 0H17.9617V46.9374H0V0Z" transform="translate(6.10352e-05 0.0626221)" fill="white"/>
</mask>
<g mask="url(#mask0)">
<path fill-rule="evenodd" clip-rule="evenodd" d="M17.9617 46.4088C17.9617 46.7606 17.3896 46.9375 16.2456 46.9375C12.8509 46.9375 10.2965 46.3957 8.5804 45.3131C5.94907 43.6327 4.63347 41.149 4.63347 37.8636C4.63347 36.557 4.78533 34.3725 5.09107 31.3104C5.20547 30.1532 5.26267 29.2938 5.26267 28.7337C5.26267 27.3527 4.93813 26.3349 4.29013 25.6811C3.64133 25.0282 2.44 24.5145 0.6864 24.1409C0.2288 24.0288 0 23.8047 0 23.4687C0 23.0583 0.3808 22.7966 1.144 22.6845C2.36413 22.5357 3.35533 22.0501 4.11853 21.2282C4.88107 20.4073 5.26267 19.4175 5.26267 18.2596C5.26267 17.6995 5.20547 16.785 5.09107 15.5151C4.78533 12.1543 4.63347 9.89559 4.63347 8.73769C4.63347 5.34024 6.08227 2.87575 8.9808 1.3442C10.6585 0.448067 13.2513 0 16.7604 0C17.5613 0 17.9617 0.159278 17.9617 0.476006C17.9617 0.793778 17.4711 0.952142 16.4896 0.952142C14.904 0.989742 13.8091 1.37305 13.2049 2.10299C12.6007 2.83293 12.2987 4.1719 12.2987 6.11836C12.2987 7.09152 12.3361 8.47697 12.4131 10.2728C12.4505 10.8723 12.4701 11.7518 12.4701 12.9123C12.4701 16.0945 11.5165 18.5651 9.61013 20.3242C8.04587 21.784 5.87227 22.7205 3.08893 23.1318C2.74573 23.1694 2.57413 23.263 2.57413 23.4127C2.57413 23.6376 2.89773 23.8056 3.54653 23.9178C9.5332 24.854 12.5275 28.0923 12.5275 33.6322C12.5275 34.6429 12.5077 35.4482 12.4701 36.0468C12.3559 37.8811 12.2987 39.3408 12.2987 40.4261C12.2987 42.8968 12.7751 44.5063 13.7287 45.2554C14.3383 45.742 15.4636 45.9853 17.1036 45.9853C17.6757 45.9853 17.9617 46.1262 17.9617 46.4088Z" transform="translate(6.10352e-05 0.0626221)" fill="#CEC0AB"/>
</g>
<mask id="mask1" mask-type="alpha" maskUnits="userSpaceOnUse" x="116" y="0" width="18" height="48">
<path fill-rule="evenodd" clip-rule="evenodd" d="M0 0H17.9617V46.9374H0V0Z" transform="translate(116.021 0.0626221)" fill="white"/>
</mask>
<g mask="url(#mask1)">
<path fill-rule="evenodd" clip-rule="evenodd" d="M17.9617 23.4687C17.9617 23.8799 17.5801 24.1408 16.8177 24.2529C15.5592 24.4024 14.5583 24.8787 13.8145 25.6811C13.0708 26.4846 12.6991 27.4831 12.6991 28.6777C12.6991 29.2378 12.7563 30.1532 12.8707 31.4222C13.1756 34.783 13.3283 37.0427 13.3283 38.1996C13.3283 41.5603 11.8785 44.0248 8.98093 45.5931C7.3024 46.4893 4.78547 46.9375 1.43013 46.9375C0.4764 46.9375 0 46.7782 0 46.4613C0 46.1437 0.4908 45.9853 1.47213 45.9853C3.0952 45.9476 4.2 45.5546 4.78547 44.8063C5.37 44.0562 5.6632 42.6902 5.6632 40.7071C5.6632 39.9956 5.62467 38.6486 5.54867 36.6646C5.47187 35.9906 5.43427 35.1488 5.43427 34.1371C5.43427 30.8804 6.3924 28.3723 8.31053 26.6132C9.92107 25.1534 12.1084 24.2178 14.8701 23.8056C15.2151 23.7689 15.3876 23.6752 15.3876 23.5247C15.3876 23.3006 15.0632 23.1317 14.4151 23.0197C11.5551 22.5708 9.3428 21.5135 7.7796 19.8472C6.21547 18.1817 5.43427 16.0384 5.43427 13.4173C5.43427 12.9693 5.46467 12.1264 5.5256 10.8907C5.61667 9.05625 5.6632 7.5781 5.6632 6.45532C5.6632 4.39685 5.37 2.96505 4.78547 2.15991C4.2 1.35478 3.15253 0.952142 1.642 0.952142H0.849067C0.2824 0.952142 0 0.811272 0 0.528619C0 0.176772 0.5336 0 1.60173 0C5.10987 0 7.7224 0.541675 9.43853 1.62424C12.0313 3.26781 13.3283 5.76912 13.3283 9.12975C13.3283 10.4374 13.1756 12.6025 12.8707 15.6271C12.7563 16.7474 12.6991 17.5875 12.6991 18.1476C12.6991 19.5295 13.0324 20.5561 13.7001 21.2282C14.3669 21.9003 15.5592 22.4237 17.2753 22.7966C17.7329 22.9086 17.9617 23.1326 17.9617 23.4687Z" transform="translate(116.021 0.0626221)" fill="#CEC0AB"/>
</g>
</g>
<mask id="mask2" mask-type="alpha" maskUnits="userSpaceOnUse" x="25" y="4" width="33" height="33">
<path fill-rule="evenodd" clip-rule="evenodd" d="M0 0H32.5247V32.1367H0V0Z" transform="translate(25.0002 4.36792)" fill="white"/>
</mask>
<g mask="url(#mask2)">
<path fill-rule="evenodd" clip-rule="evenodd" d="M32.5247 7.88068C32.5247 8.16996 32.2508 8.3146 31.7025 8.3146C31.4588 8.3146 31.3065 8.20787 31.2454 7.99443C30.591 5.84732 29.6544 4.32862 28.4362 3.43762C27.218 2.54732 25.4135 2.10147 23.0228 2.10147H20.8764C20.13 2.10147 19.6196 2.22364 19.3457 2.46728C19.0712 2.71091 18.9343 3.168 18.9343 3.83783V27.0207C18.9343 28.0711 19.0677 28.8139 19.3338 29.2471C19.6006 29.681 20.0724 30.0244 20.75 30.2757C21.4275 30.5264 22.3986 30.7293 23.6624 30.8803C23.906 30.9112 24.0275 31.1169 24.0275 31.4974C24.0275 31.9236 23.906 32.1371 23.6624 32.1371C22.6422 32.1371 21.424 32.0914 20.0078 31.9995C18.6647 31.9082 17.542 31.8633 16.639 31.8633C15.7052 31.8633 14.56 31.9082 13.2014 31.9995C11.7852 32.0914 10.567 32.1371 9.54683 32.1371C9.30319 32.1371 9.18172 31.9236 9.18172 31.4974C9.18172 31.1169 9.30319 30.9112 9.54683 30.8803C11.3892 30.6682 12.6418 30.3249 13.3039 29.8524C13.9667 29.3812 14.2981 28.4369 14.2981 27.0207V3.83783C14.2981 3.168 14.1612 2.71091 13.8867 2.46728C13.6129 2.22364 13.0947 2.10147 12.3336 2.10147H10.5523C8.40517 2.10147 6.45606 2.64632 4.70496 3.73462C2.95385 4.82362 1.81149 6.2356 1.27857 7.97196C1.20274 8.20015 1.03494 8.3146 0.776553 8.3146C0.258383 8.3146 0 8.14679 0 7.81187C0.852383 5.5124 1.65913 2.90891 2.42094 0C4.49362 0.426894 9.23298 0.639638 16.639 0.639638C24.2431 0.639638 29.0814 0.426894 31.1541 0C31.3676 1.98 31.8239 4.60666 32.5247 7.88068Z" transform="translate(25.0002 4.36755)" fill="#9F393D"/>
</g>
<path fill-rule="evenodd" clip-rule="evenodd" d="M27 24.4084C25.8063 27.0625 24.8329 29.592 24.081 32C18.5232 31.8161 14.5649 31.7242 12.2067 31.7242C9.87714 31.7242 5.92628 31.8161 0.353483 32C0.117601 32 0 31.785 0 31.3558C0 30.9725 0.117601 30.7653 0.353483 30.7348C1.57708 30.5814 2.51313 30.3777 3.16232 30.1253C3.81082 29.8721 4.26355 29.5305 4.52187 29.1006C4.7795 28.6706 4.90866 27.9188 4.90866 26.8439V5.1794C4.90866 4.12004 4.78766 3.37255 4.54362 2.93481C4.30094 2.49777 3.85501 2.14771 3.2065 1.88747C2.55732 1.62581 1.60631 1.41931 0.353483 1.26515C0.117601 1.26515 0 1.05512 0 0.632928C0 0.211448 0.117601 0 0.353483 0C4.06846 0.184575 7.8718 0.276508 11.7642 0.276508C15.6851 0.276508 19.496 0.184575 23.1967 0C23.5352 2.37755 24.0294 4.72469 24.6786 7.03929C24.6786 7.34692 24.4203 7.49967 23.9043 7.49967C23.6535 7.49967 23.4992 7.39288 23.44 7.1779C22.3483 3.55854 20.0194 1.74886 16.4519 1.74886H11.9851C10.2748 1.74886 9.42033 2.66891 9.42033 4.5097V14.7462H14.9924C16.475 14.7462 17.4791 14.394 18.0052 13.6882C18.5314 12.9832 18.8978 11.7329 19.1058 9.93874C19.1058 9.69335 19.3083 9.5703 19.7135 9.5703C20.1193 9.5703 20.3219 9.69335 20.3219 9.93874C20.3219 10.706 20.2777 11.6713 20.1893 12.8375C20.101 13.957 20.0568 14.8692 20.0568 15.575C20.0568 16.2956 20.101 17.2156 20.1893 18.3351C20.2777 19.5317 20.3219 20.5132 20.3219 21.2798C20.3219 21.5259 20.1193 21.6483 19.7135 21.6483C19.3083 21.6483 19.1058 21.5259 19.1058 21.2798C18.8835 19.4093 18.494 18.0975 17.9386 17.3465C17.3832 16.5947 16.4003 16.2192 14.9924 16.2192H9.42033V27.537C9.42033 29.3467 10.2748 30.2518 11.9851 30.2518H16.8061C18.5599 30.2518 20.3001 29.6578 22.0247 28.469C23.75 27.281 25.0171 25.7973 25.8281 24.0173C25.8865 23.8794 26.0123 23.8101 26.204 23.8101C26.4106 23.8101 26.5942 23.8681 26.7573 23.9827C26.9191 24.0979 27 24.2401 27 24.4084Z" transform="translate(52 12)" fill="#9F393D"/>
<mask id="mask3" mask-type="alpha" maskUnits="userSpaceOnUse" x="75" y="4" width="34" height="33">
<path fill-rule="evenodd" clip-rule="evenodd" d="M0 0H33.4295V31.7713H0V0Z" transform="translate(75.4498 4.55042)" fill="white"/>
</mask>
<g mask="url(#mask3)">
<path fill-rule="evenodd" clip-rule="evenodd" d="M33.4296 31.1316C33.4296 31.5578 33.3089 31.7713 33.0681 31.7713C32.3611 31.7713 31.3758 31.7263 30.1122 31.6344C28.7578 31.5431 27.667 31.4974 26.8399 31.4974C25.9524 31.4974 24.7784 31.5431 23.3191 31.6344C21.7843 31.7263 20.5055 31.7713 19.482 31.7713C19.2565 31.7713 19.1441 31.5578 19.1441 31.1316C19.1441 30.7511 19.2641 30.5454 19.5056 30.5152C21.5962 30.2259 22.6419 29.7456 22.6419 29.0751C22.6419 28.5576 22.2658 27.7509 21.5137 26.6528L15.6233 18.065L9.75106 26.6549C9.2702 27.3142 9.02874 27.9264 9.02874 28.493C9.02874 29.0604 9.30698 29.4929 9.86416 29.7913C10.4207 30.0904 11.3768 30.3312 12.7313 30.5152C12.9117 30.5454 13.0019 30.7546 13.0019 31.1436C13.0019 31.5613 12.8811 31.7713 12.6404 31.7713C11.6023 31.7713 10.413 31.7263 9.07384 31.6344C7.90049 31.5431 6.92212 31.4974 6.14012 31.4974C5.4622 31.4974 4.6351 31.5431 3.65673 31.6344C2.54306 31.7263 1.53486 31.7713 0.632122 31.7713C0.391347 31.7713 0.271306 31.5578 0.271306 31.1316C0.271306 30.7511 0.436449 30.5454 0.767429 30.5152C2.25718 30.3628 3.42359 30.0391 4.26665 29.5441C5.10902 29.0498 6.08739 28.0788 7.20037 26.6324L14.7518 16.7956L6.77155 5.16204C5.71825 3.58506 4.78567 2.58102 3.97314 2.15272C3.15992 1.72372 1.95673 1.42462 0.36151 1.25611C0.120041 1.25611 0 1.04757 0 0.628404C0 0.209234 0.120041 0 0.36151 0C1.06927 0 2.07122 0.0456383 3.36669 0.136915C4.76763 0.228894 5.87506 0.274532 6.68829 0.274532C7.60698 0.274532 8.77478 0.228894 10.1917 0.136915C11.6974 0.0456383 12.954 0 13.9622 0C14.203 0 14.3237 0.209234 14.3237 0.628404C14.3237 1.04757 14.203 1.25611 13.9622 1.25611C12.7285 1.42462 11.8931 1.6156 11.4559 1.82974C11.0195 2.04389 10.8016 2.3416 10.8016 2.72355C10.8016 3.24313 11.1777 4.05268 11.9312 5.15292L17.4802 13.219L23.0013 5.16204C23.5433 4.30474 23.8139 3.67634 23.8139 3.27823C23.8139 2.74251 23.5169 2.31772 22.9216 2.00387C22.3276 1.68932 21.3458 1.44077 19.976 1.25611C19.7963 1.25611 19.7061 1.04757 19.7061 0.628404C19.7061 0.209234 19.8262 0 20.0669 0C21.0744 0 22.1812 0.0456383 23.3844 0.136915C24.5286 0.228894 25.559 0.274532 26.477 0.274532C27.1847 0.274532 28.0118 0.236617 28.9604 0.160085C30.1337 0.0533617 31.2467 0 32.3007 0C32.5415 0 32.6622 0.209234 32.6622 0.628404C32.6622 0.793404 32.6088 0.938745 32.504 1.06583C32.3985 1.19291 32.2861 1.25611 32.1654 1.25611C30.5403 1.44077 29.2948 1.78902 28.4296 2.30228C27.5643 2.81483 26.5977 3.76832 25.5291 5.16204L18.3309 14.5024L26.638 26.6373C27.7475 28.2438 28.6766 29.2422 29.426 29.6312C30.176 30.0216 31.3903 30.3165 33.0695 30.5152C33.3096 30.5454 33.4296 30.7511 33.4296 31.1316Z" transform="translate(75.4498 4.55042)" fill="#9F393D"/>
</g>
</svg>
